<svg xmlns="http://www.w3.org/2000/svg" viewBox="0 0 960 720" role="img" aria-label="热带植物">
  <defs>
    <linearGradient id="tsky" x1="0" y1="0" x2="1" y2="1">
      <stop offset="0" stop-color="#c3e7d6"/>
      <stop offset=".6" stop-color="#8fd0bd"/>
      <stop offset="1" stop-color="#2d6a64"/>
    </linearGradient>
    <linearGradient id="leaf" x1="0" y1="0" x2="1" y2="1">
      <stop offset="0" stop-color="#4e8c59"/>
      <stop offset="1" stop-color="#18533b"/>
    </linearGradient>
    <linearGradient id="leaf2" x1="0" y1="0" x2="1" y2="1">
      <stop offset="0" stop-color="#78a64f"/>
      <stop offset="1" stop-color="#25633d"/>
    </linearGradient>
  </defs>
  <rect width="960" height="720" fill="url(#tsky)"/>
  <path d="M0 390 L260 270 L430 330 L640 240 L960 420 L960 720 L0 720 Z" fill="#24705a" opacity=".7"/>
  <path d="M0 520 L260 430 L430 480 L640 390 L960 550 L960 720 L0 720 Z" fill="#17563f"/>
  <path d="M70 720 C90 560 180 500 220 300 L300 720 Z" fill="#9c3f33"/>
  <path d="M170 330 C230 200 330 230 350 80 C370 250 430 280 390 400 C370 330 260 340 170 330 Z" fill="url(#leaf)"/>
  <path d="M240 360 C340 300 470 380 500 150 C560 300 640 320 590 460 C500 420 370 430 240 360 Z" fill="url(#leaf2)"/>
  <path d="M700 720 C730 520 800 490 800 280 C850 460 940 520 920 720 Z" fill="#a64a32"/>
  <path d="M790 220 C860 110 920 170 940 40 C970 190 1010 220 990 330 C940 280 860 290 790 220 Z" fill="#3f8b54"/>
  <circle cx="360" cy="152" r="58" fill="#f5d36b" opacity=".95"/>
  <path d="M0 660 L960 660 L960 720 L0 720 Z" fill="#0f352e" opacity=".75"/>
</svg>
