<svg xmlns="http://www.w3.org/2000/svg" viewBox="0 0 600 900" role="img" aria-label="太空题材海报">
  <defs>
    <linearGradient id="space" x1="0" y1="0" x2="1" y2="1">
      <stop offset="0" stop-color="#101b33"/>
      <stop offset=".55" stop-color="#263a62"/>
      <stop offset="1" stop-color="#5c486f"/>
    </linearGradient>
  </defs>
  <rect width="600" height="900" fill="url(#space)"/>
  <circle cx="420" cy="220" r="88" fill="#c97856"/>
  <ellipse cx="420" cy="220" rx="176" ry="58" fill="none" stroke="#edc96f" stroke-width="22" transform="rotate(-24 420 220)"/>
  <path d="M170 690 C210 560 290 470 330 300" stroke="#ece4d1" stroke-width="22" fill="none"/>
  <path d="M330 290 L370 336 L330 330 Z" fill="#ece4d1"/>
  <path d="M300 700 C330 620 390 570 440 480" stroke="#8fa6c8" stroke-width="12" fill="none" opacity=".8"/>
  <rect x="56" y="646" width="150" height="72" rx="18" fill="#e8e0cc"/>
  <rect x="184" y="672" width="66" height="46" rx="8" fill="#9ac7d4"/>
  <rect x="64" y="660" width="74" height="44" rx="10" fill="#273b58"/>
  <circle cx="96" cy="682" r="12" fill="#e8e0cc"/>
  <rect x="410" y="610" width="170" height="78" rx="18" fill="#e8e0cc"/>
  <rect x="414" y="616" width="160" height="66" rx="12" fill="#3f6a78"/>
  <circle cx="200" cy="700" r="18" fill="#b7b2a2" opacity=".9"/>
  <path d="M0 780 L600 780 L600 900 L0 900 Z" fill="#090f1d" opacity=".8"/>
</svg>
